<svg width="1982" height="3199" viewBox="0 0 1982 3199" fill="none" xmlns="http://www.w3.org/2000/svg">
<g clip-path="url(#clip0_27_25)">
<rect width="1982" height="3199" fill="white"/>
<path d="M421.776 -560.565C533.847 -467.735 573.443 -515.538 685.514 -422.708C797.585 -329.879 589.708 -78.9132 701.779 13.9165C813.85 106.746 863.344 46.9924 975.415 139.822C1087.49 232.652 1255.77 29.4893 1367.84 122.319C1479.91 215.149 1351.22 370.508 1463.29 463.338C1575.37 556.167 1731.43 272.67 1843.5 365.5" stroke="#D9C7F2" stroke-width="10" stroke-dasharray="20 20"/>
<path d="M1843 2899C1721.08 2854.69 1672.42 3132.81 1550.5 3088.5C1428.58 3044.19 1306.92 2811.98 1185 2767.67C1063.08 2723.35 1050.92 2979.81 929 2935.5C807.083 2891.19 874.917 2811.98 753 2767.67C631.083 2723.35 612.417 2811.98 490.5 2767.67C368.583 2723.35 429.917 2501.31 308 2457C186.083 2412.69 82.5076 2571.37 -39.4091 2527.05C-161.326 2482.74 -77.8969 2253.21 -199.814 2208.89C-321.73 2164.58 -297.193 2097.07 -419.109 2052.76C-541.026 2008.44 -506.673 1913.93 -628.589 1869.62" stroke="#D9C7F2" stroke-width="10" stroke-dasharray="20 20"/>
<path d="M-1008.69 -535.434C-850.886 -419.321 -816.829 -465.605 -659.029 -349.492C-501.229 -233.379 -680.029 9.61308 -522.23 125.726C-364.43 241.839 -321.858 183.984 -164.059 300.097C-6.25891 416.21 138.484 219.501 296.284 335.614C454.083 451.727 343.398 602.151 501.198 718.264C658.997 834.377 854.826 568.243 1012.63 684.356C1170.43 800.469 1119.34 869.895 1277.14 986.008C1434.94 1102.12 1443.45 1090.55 1601.25 1206.66C1759.05 1322.78 1631.34 1496.34 1789.14 1612.45C1946.94 1728.57 2049.11 1589.72 2206.91 1705.83C2364.71 1821.94 2219.97 2018.65 2377.77 2134.76C2535.57 2250.88 2492.99 2308.73 2650.79 2424.84C2808.59 2540.96 2748.99 2621.95 2906.79 2738.07M2906.79 2738.07V2738.07Z" stroke="#D9C7F2" stroke-width="10" stroke-dasharray="20 20"/>
<path d="M3776.7 1725.88C3563.61 1752.07 3556.6 1695.03 3343.51 1721.22C3130.42 1747.4 3167.21 2046.84 2954.12 2073.02C2741.02 2099.21 2732.26 2027.91 2519.17 2054.1C2306.08 2080.28 2276.29 1837.88 2063.2 1864.07C1850.1 1890.25 1872.88 2075.62 1659.79 2101.8C1446.7 2127.99 1406.4 1800.04 1193.3 1826.22C980.21 1852.41 990.723 1937.96 777.63 1964.15C564.537 1990.33 562.785 1976.07 349.692 2002.26C136.598 2028.44 162.881 2242.32 -50.2126 2268.51C-263.306 2294.69 -284.331 2123.59 -497.425 2149.77C-710.518 2175.96 -680.731 2418.36 -893.824 2444.54C-1106.92 2470.73 -1098.16 2542.02 -1311.25 2568.21C-1524.34 2594.39 -1512.08 2694.21 -1725.17 2720.39M-1725.17 2720.39V2720.39Z" stroke="#D9C7F2" stroke-width="10" stroke-dasharray="20 20"/>
<path d="M1727.05 2655.44C1722.5 2668.34 1720 2682.21 1720 2696.67C1720 2729.88 1734.71 2764.73 1753.99 2796.15C1772.95 2827.03 1796.32 2854.58 1814.5 2874.03C1831.53 2892.24 1844 2903.33 1844 2903.33V2738C1821.17 2738 1802.67 2719.49 1802.67 2696.67C1802.67 2673.84 1821.17 2655.33 1844 2655.33V2572.67C1822.32 2572.67 1801.96 2578.24 1784.23 2588.02C1757.77 2602.6 1737.22 2626.57 1727.05 2655.44Z" fill="#FFD7E6"/>
<path d="M1885.33 2696.67C1885.33 2719.49 1866.83 2738 1844 2738V2903.33C1844 2903.33 1935.04 2822.41 1961.1 2738.56C1965.45 2724.56 1968 2710.47 1968 2696.67C1968 2680.18 1964.75 2664.45 1958.91 2650.06C1940.49 2604.68 1895.99 2572.67 1844 2572.67V2655.33C1866.83 2655.33 1885.33 2673.84 1885.33 2696.67Z" fill="#FFAFCC"/>
<path d="M1844 2738C1866.83 2738 1885.33 2719.49 1885.33 2696.67C1885.33 2673.84 1866.83 2655.33 1844 2655.33C1821.17 2655.33 1802.67 2673.84 1802.67 2696.67C1802.67 2719.49 1821.17 2738 1844 2738Z" fill="white"/>
<path d="M1727.05 117.769C1722.5 130.673 1720 144.542 1720 159C1720 192.215 1734.71 227.059 1753.99 258.478C1772.95 289.363 1796.32 316.918 1814.5 336.364C1831.53 354.573 1844 365.667 1844 365.667V200.333C1821.17 200.333 1802.67 181.827 1802.67 159C1802.67 136.173 1821.17 117.667 1844 117.667V35C1822.32 35 1801.96 40.5745 1784.23 50.3512C1757.77 64.9364 1737.22 88.9014 1727.05 117.769Z" fill="#D1E9FF"/>
<path d="M1885.33 159C1885.33 181.827 1866.83 200.333 1844 200.333V365.667C1844 365.667 1935.04 284.739 1961.1 200.895C1965.45 186.889 1968 172.805 1968 159C1968 142.511 1964.75 126.788 1958.91 112.393C1940.49 67.014 1895.99 35 1844 35V117.667C1866.83 117.667 1885.33 136.173 1885.33 159Z" fill="#A2D2FF"/>
<path d="M1844 200.333C1866.83 200.333 1885.33 181.828 1885.33 159C1885.33 136.172 1866.83 117.667 1844 117.667C1821.17 117.667 1802.67 136.172 1802.67 159C1802.67 181.828 1821.17 200.333 1844 200.333Z" fill="white"/>
</g>
<defs>
<clipPath id="clip0_27_25">
<rect width="1982" height="3199" fill="white"/>
</clipPath>
</defs>
</svg>
