<svg width="90" height="120" viewBox="0 0 90 120" fill="none" xmlns="http://www.w3.org/2000/svg">
<path d="M2.558 30.037C0.906999 34.72 0 39.753 0 45C0 57.054 5.33701 69.699 12.335 81.101C19.214 92.309 27.695 102.309 34.293 109.366C40.473 115.974 45 120 45 120V60C36.716 60 30 53.284 30 45C30 36.716 36.716 30 45 30V0C37.134 0 29.742 2.023 23.308 5.571C13.706 10.864 6.251 19.561 2.558 30.037Z" fill="#4DA7C2"/>
<path d="M60 45C60 53.284 53.284 60 45 60V120C45 120 78.037 90.631 87.495 60.204C89.075 55.121 90 50.01 90 45C90 39.016 88.822 33.31 86.701 28.086C80.015 11.618 63.868 0 45 0V30C53.284 30 60 36.716 60 45Z" fill="#0081A7"/>
</svg>
